<svg width="100" height="69" viewBox="0 0 100 69" fill="none" xmlns="http://www.w3.org/2000/svg">
<path d="M23.2839 0.387695C30.8034 0.387695 37.0783 5.79601 38.4431 12.9238L38.4587 13.0049H63.0203C67.5595 13.0049 71.2507 16.6961 71.2507 21.2354V28.8604H84.4275C88.3898 28.8604 92.0445 30.7602 94.282 33.9609L94.4939 34.2754L99.5505 42.0117C99.7076 42.2521 99.7917 42.5352 99.7917 42.8242V60.4727C99.7917 61.2939 99.1275 61.959 98.3064 61.959H92.8845L92.866 62.0361C91.9743 65.8715 88.5344 68.7412 84.4324 68.7412C80.3304 68.7412 76.8914 65.8715 75.9988 62.0361L75.9802 61.959H45.3162L45.2986 62.0361C44.4069 65.8716 40.9679 68.7412 36.864 68.7412C32.7612 68.741 29.322 65.8714 28.4304 62.0361L28.4128 61.959H14.2703C13.45 61.9589 12.7849 61.2938 12.7849 60.4727V58.9072C12.785 55.7025 14.7215 52.9482 17.4822 51.7305L17.5417 51.7041V44.5166H1.58569C0.764558 44.5166 0.0994784 43.8524 0.0993652 43.0312C0.0993652 42.21 0.764488 41.5449 1.58569 41.5449H17.5417V38.1738H11.0984C10.2782 38.1738 9.61321 37.5104 9.61304 36.6895C9.61304 35.8683 10.2782 35.2032 11.0984 35.2031H17.5417V31.832H1.58569C0.764604 31.832 0.0995525 31.1677 0.0993652 30.3467C0.0993652 29.5255 0.764488 28.8604 1.58569 28.8604H15.0085L14.7341 28.6768C10.5837 25.9055 7.84262 21.1832 7.84253 15.8301C7.84253 7.31612 14.7691 0.387856 23.2839 0.387695ZM36.864 54.3818C33.7251 54.3821 31.1697 56.9372 31.1697 60.0762C31.1697 63.216 33.7251 65.7703 36.864 65.7705C40.004 65.7705 42.5583 63.2161 42.5583 60.0762C42.5583 56.9371 40.004 54.3818 36.864 54.3818ZM84.4324 54.3818C81.2933 54.3818 78.738 56.9371 78.738 60.0762C78.7381 63.2162 81.2933 65.7705 84.4324 65.7705C87.5723 65.7705 90.1267 63.2161 90.1267 60.0762C90.1267 56.9371 87.5723 54.3819 84.4324 54.3818ZM20.6326 54.0303C17.9509 54.0303 15.7667 56.2078 15.7556 58.8867L15.7546 58.9863H28.2771L28.2888 58.9004C28.5345 57.0979 29.3359 55.4729 30.5164 54.1982L30.6716 54.0303H20.6326ZM43.2126 54.1982C44.3939 55.4729 45.1945 57.0978 45.4412 58.9004L45.4529 58.9863H68.28V54.0303H43.0574L43.2126 54.1982ZM38.7146 16.0742C38.6316 21.3256 35.9209 25.9479 31.8347 28.6768L31.5603 28.8604H41.2244C42.0447 28.8604 42.7107 29.5255 42.7107 30.3467C42.7105 31.1677 42.0446 31.832 41.2244 31.832H20.5125V35.2031H31.7117C32.5319 35.2031 33.197 35.8682 33.197 36.6895C33.1969 37.5105 32.5319 38.1738 31.7117 38.1738H20.5125V41.5449H23.783C24.6042 41.5449 25.2693 42.21 25.2693 43.0312C25.2692 43.8524 24.6041 44.5166 23.783 44.5166H20.5125V51.0605H20.6121C20.6234 51.0605 20.6336 51.059 20.6365 51.0586H68.28V21.2354C68.28 18.3358 65.9208 15.9756 63.0212 15.9756H38.7156L38.7146 16.0742ZM23.2839 3.35938C16.4079 3.35954 10.8132 8.954 10.8132 15.8301C10.8134 22.706 16.408 28.3006 23.2839 28.3008C30.1609 28.3008 35.7545 22.7061 35.7546 15.8301C35.7546 8.95391 30.161 3.35938 23.2839 3.35938ZM96.8201 43.2666L96.8044 43.2412L92.0076 35.8994C90.343 33.3521 87.5083 31.832 84.4275 31.832H71.2507V58.9863H75.8445L75.8562 58.9004C76.4338 54.6784 80.0549 51.4111 84.4324 51.4111C88.8099 51.4112 92.4318 54.6785 93.0085 58.9004L93.0203 58.9863H96.8201V43.2666Z" fill="#64D370" stroke="#E5E5E5" stroke-width="0.2"/>
<path d="M23.7825 7.40747C24.6037 7.40747 25.2688 8.07172 25.2688 8.89282V15.8303C25.2687 16.1062 25.1919 16.3751 25.0491 16.6077L24.9836 16.7043L21.4426 21.5608C21.1519 21.9601 20.6998 22.1721 20.2415 22.1721C19.976 22.1721 19.7085 22.101 19.468 21.9534L19.3665 21.885C18.7451 21.4324 18.5792 20.5887 18.9592 19.9387L19.0422 19.8108L22.2786 15.3713L22.2971 15.345V8.89282C22.2972 8.07173 22.9622 7.40755 23.7825 7.40747Z" fill="#64D370" stroke="#E5E5E5" stroke-width="0.2"/>
<path d="M80.8647 33.6168H83.8979C86.3908 33.6169 88.7132 34.9208 90.0151 37.0309L90.1382 37.2379L93.8413 43.7184C94.2857 44.4931 94.3122 45.4123 93.9175 46.2067L93.8335 46.3639C93.3524 47.1923 92.4951 47.688 91.5366 47.6881H80.8647C80.0435 47.6881 79.3784 47.023 79.3784 46.2018V35.1031L79.3862 34.9508C79.4573 34.2513 80.0129 33.6957 80.7124 33.6246L80.8647 33.6168ZM82.3511 44.7164H90.9888L90.9038 44.567L87.5581 38.7125C86.8099 37.4022 85.408 36.5895 83.8979 36.5895H82.3511V44.7164Z" fill="#64D370" stroke="#E5E5E5" stroke-width="0.2"/>
</svg>
