<svg width="69" height="69" viewBox="0 0 69 69" fill="none" xmlns="http://www.w3.org/2000/svg">
<path d="M34.0837 0.25C52.74 0.250161 67.9167 15.4277 67.9167 34.084C67.9166 52.7402 52.7399 67.9168 34.0837 67.917C15.4274 67.917 0.249917 52.7403 0.249756 34.084C0.249756 15.4276 15.4273 0.25 34.0837 0.25ZM34.0837 4.01074C17.5004 4.01074 4.0105 17.5006 4.0105 34.084C4.01066 50.6672 17.5005 64.1572 34.0837 64.1572C50.6669 64.1571 64.1568 50.6671 64.157 34.084C64.157 17.5007 50.667 4.0109 34.0837 4.01074Z" fill="#64D370" stroke="#E5E5E5" stroke-width="0.5"/>
<path d="M34.0835 13.7413C35.1212 13.7413 35.9642 14.5835 35.9644 15.6212V34.7237L50.3247 49.084C51.013 49.7725 51.0558 50.862 50.4536 51.6006L50.3247 51.7442H50.3237C49.9578 52.1124 49.4777 52.2959 48.9956 52.296C48.5737 52.296 48.1528 52.1559 47.8091 51.8741L47.6675 51.7442H47.6665L32.7554 36.8321C32.4017 36.4784 32.2036 35.9998 32.2036 35.504V15.6212C32.2038 14.5836 33.046 13.7415 34.0835 13.7413Z" fill="#64D370" stroke="#E5E5E5" stroke-width="0.5"/>
</svg>
