<svg width="69" height="68" viewBox="0 0 69 68" fill="none" xmlns="http://www.w3.org/2000/svg">
<path d="M60.5996 12.321H66.4121C67.1196 12.3211 67.6933 12.8948 67.6934 13.6022C67.6934 14.3097 67.1196 14.8834 66.4121 14.8835H63.2188L63.2686 14.9606C67.1717 20.9293 69.105 28.0158 68.7637 35.195L68.7236 35.8903C68.1834 43.8336 64.871 51.3268 59.375 57.0768L58.8369 57.6276C52.3214 64.143 43.6342 67.6061 34.7803 67.6061C30.7714 67.6061 26.7288 66.8965 22.8369 65.4391L22.0605 65.1374C21.445 64.8898 21.1271 64.2183 21.3076 63.5944L21.3496 63.4704C21.5973 62.855 22.2688 62.5374 22.8926 62.7175L23.0166 62.7604C34.5575 67.4034 47.6729 64.8343 56.6025 56.2302L57.0244 55.8161C67.1561 45.6844 69.0322 29.8778 61.9736 17.738L61.8809 17.5778V19.4147C61.8808 20.1222 61.3071 20.696 60.5996 20.696C59.8921 20.696 59.3184 20.1222 59.3184 19.4147V13.6022C59.3184 12.9389 59.8227 12.3933 60.4688 12.3278L60.5996 12.321Z" fill="#64D370" stroke="#E5E5E5" stroke-width="0.1"/>
<path d="M27.6355 0.818604C33.9611 -0.394702 40.4395 0.192246 46.4128 2.51392L46.989 2.74341C47.6027 2.99477 47.9172 3.66859 47.7332 4.29126L47.6892 4.41528C47.4377 5.0285 46.7648 5.34239 46.1423 5.15845L46.0183 5.1145C34.4286 0.366734 21.2421 2.90566 12.2517 11.5676L11.8269 11.9846C1.61213 22.1996 -0.209667 38.1833 7.05542 50.3616L7.14917 50.5178V48.4417C7.14917 47.7343 7.72211 47.1606 8.42944 47.1604C9.13698 47.1604 9.71082 47.7341 9.71069 48.4417V54.3762C9.71051 55.0836 9.13687 55.6565 8.42944 55.6565H2.49585C1.78843 55.6565 1.21479 55.0836 1.2146 54.3762C1.2146 53.6687 1.78831 53.095 2.49585 53.095H5.75171L5.69995 53.0168C1.71981 47.0132 -0.255774 39.8599 0.0876465 32.6116L0.128662 31.9104C0.668933 23.9672 3.98126 16.4741 9.47729 10.7239L10.0154 10.1731C14.7005 5.48801 20.5653 2.30567 27.0105 0.94458L27.6355 0.818604Z" fill="#64D370" stroke="#E5E5E5" stroke-width="0.1"/>
<path d="M31.2179 28.7611C31.4279 28.6573 31.671 28.641 31.8929 28.716L31.974 28.7478C32.159 28.8316 32.3106 28.977 32.4015 29.1606L36.8006 38.0551C36.8914 38.2387 36.9149 38.4475 36.8692 38.6454L36.8453 38.7291C36.7702 38.9511 36.6098 39.1343 36.3998 39.2382C36.216 39.329 36.0074 39.3526 35.8095 39.3068L35.7257 39.2829C35.5039 39.2079 35.321 39.0481 35.2171 38.8383L30.818 29.9438C30.7142 29.7339 30.6983 29.4916 30.7733 29.2697L30.8047 29.1878C30.8885 29.0028 31.0344 28.852 31.2179 28.7611Z" fill="#64D370" stroke="#64D370" stroke-width="0.2"/>
<path d="M34.963 26.9093C35.173 26.8054 35.4161 26.7891 35.638 26.8641L35.7191 26.8959C35.9041 26.9797 36.0558 27.1251 36.1466 27.3088L40.5457 36.2032C40.6365 36.3869 40.6601 36.5956 40.6143 36.7935L40.5904 36.8773C40.5153 37.0992 40.3549 37.2825 40.1449 37.3863C39.9611 37.4772 39.7526 37.5007 39.5546 37.455L39.4708 37.431C39.249 37.356 39.0661 37.1962 38.9622 36.9864L34.5631 28.092C34.4593 27.882 34.4434 27.6398 34.5184 27.4179L34.5498 27.3359C34.6336 27.151 34.7795 27.0001 34.963 26.9093Z" fill="#64D370" stroke="#64D370" stroke-width="0.2"/>
<path d="M17.8992 25.0288C17.2809 26.078 16.7684 27.1861 16.3707 28.3375L16.3694 28.337C14.3438 34.328 17.8804 38.8758 19.693 40.7093L22.1139 33.5504L17.8992 25.0288ZM28.6537 14.2003C26.1689 15.9007 21.9904 19.1214 19.0247 23.3173L22.9129 31.1789L28.6537 14.2003ZM49.5798 53.292C49.6706 53.4758 49.6943 53.6844 49.6484 53.8824L49.6245 53.9661C49.5495 54.1879 49.3897 54.3709 49.1799 54.4747C48.996 54.5657 48.7868 54.5897 48.5887 54.5438L48.5049 54.5198C48.2832 54.4448 48.1002 54.285 47.9963 54.0752L44.7202 47.4515C43.9278 45.9106 43.6437 44.1584 43.9082 42.446L43.9082 42.4438L44.2099 40.7563C44.3902 39.4996 44.2 38.2194 43.6647 37.0722L38.3075 26.2406C38.2036 26.0307 38.1874 25.7876 38.2624 25.5657L38.295 25.4842C38.3788 25.2991 38.5242 25.1475 38.7079 25.0566C38.9179 24.9528 39.1609 24.9365 39.3828 25.0115C39.6047 25.0866 39.788 25.2471 39.8919 25.457L42.2821 30.2898C46.5241 26.1831 49.2865 20.7366 50.3017 18.5642C47.5885 17.953 39.8478 16.5449 33.2315 18.4338C33.7157 20.4828 34.0405 22.5661 34.2011 24.6654L34.2016 24.6663C34.2186 24.8999 34.1426 25.131 33.9896 25.3083C33.8556 25.4634 33.6723 25.5664 33.4721 25.6012L33.3847 25.6118C33.1802 25.6267 32.9777 25.5701 32.8115 25.4529L32.7436 25.3994C32.5662 25.2462 32.4564 25.0286 32.4392 24.7949C32.1425 21.3769 31.4352 18.0077 30.3362 14.7583L21.3664 41.2621C23.3339 40.9663 27.0883 40.0082 29.6094 36.9248L27.0732 31.797C26.9694 31.587 26.9531 31.344 27.0281 31.122C27.1032 30.9001 27.2636 30.7168 27.4736 30.613C27.6834 30.5093 27.9259 30.4934 28.1477 30.5683C28.3696 30.6433 28.5529 30.8038 28.6567 31.0138L33.9014 41.6178C34.4818 42.8416 35.4294 43.8537 36.6119 44.5142L38.1353 45.299L38.1379 45.2999L38.4198 45.4601C39.8104 46.2904 40.9264 47.5158 41.6232 48.9832L44.8993 55.607C44.99 55.7906 45.0136 55.9995 44.9679 56.1973L44.944 56.281C44.8689 56.503 44.7085 56.6862 44.4985 56.7901C44.3147 56.881 44.1061 56.9045 43.9082 56.8587L43.8235 56.8352C43.6019 56.7602 43.4187 56.6003 43.3149 56.3906L40.038 49.7651L39.9254 49.5397C39.3381 48.4241 38.4385 47.5009 37.3344 46.8849L37.334 46.884L35.8036 46.0829L35.8023 46.0825C34.2804 45.2536 33.0599 43.9639 32.3166 42.3983L30.4584 38.6413C29.4917 39.6751 28.3689 40.5491 27.1284 41.2264L26.5716 41.5126C24.5519 42.5003 22.3519 43.0653 20.1064 43.173L20.0609 43.1955L20.0325 43.1932L19.9535 43.1854L19.9457 43.185L19.9382 43.1832L19.8126 43.1516L19.7991 43.1485L19.7986 43.1476L19.728 43.1194L19.7228 43.1176C19.671 43.0941 19.6213 43.0658 19.5751 43.0327L19.5546 43.0178L19.5365 42.981C19.2438 42.7432 17.3618 41.1378 15.8793 38.5406C14.3587 35.8765 13.2554 32.1632 14.7256 27.8154L14.8923 27.344C16.683 22.5003 20.5765 18.4737 23.5643 15.9221L24.3113 15.2934C26.0685 13.8468 27.9344 12.5366 29.8923 11.3739L29.8989 11.3695L29.8993 11.3704L30.098 11.2721L30.1054 11.2696C30.1676 11.2496 30.2319 11.2376 30.2969 11.2315L30.3319 11.2142L30.3546 11.2139C30.391 11.2135 30.4273 11.2159 30.4633 11.22L30.5707 11.2388L30.5742 11.2393L30.6871 11.2804C30.7235 11.2964 30.7591 11.315 30.793 11.3359L30.817 11.3513L30.8325 11.3828C30.8577 11.4002 30.8825 11.4181 30.9057 11.4381L30.9926 11.5237L30.9983 11.5307L31.0026 11.5372L31.1117 11.7578C31.7704 13.3758 32.3253 15.0343 32.776 16.722C40.2895 14.5977 48.8459 16.3928 51.1847 16.9508L51.7859 17.1001L51.7955 17.1019L51.7946 17.1023L51.8666 17.1267L51.874 17.1306C51.9068 17.1489 51.938 17.1705 51.9681 17.1931L52.0439 17.2384L52.1157 17.2911L52.1214 17.2959L52.1205 17.2964C52.1583 17.3327 52.1926 17.373 52.223 17.4156L52.2782 17.4853C52.328 17.558 52.3621 17.6407 52.3776 17.7281L52.3776 17.7303C52.3873 17.7927 52.3881 17.8559 52.3838 17.919L52.3851 17.9194C52.3872 17.9748 52.3828 18.0301 52.3743 18.0849C52.3745 18.1261 52.3727 18.1676 52.3668 18.2085L52.365 18.2202L52.3606 18.2311L52.3372 18.2896L52.3359 18.2891C52.2004 18.6305 49.0103 26.4663 43.1008 31.9451L45.1348 36.0575L45.2785 36.3503C45.9684 37.8233 46.2059 39.4708 45.9567 41.0831L45.9567 41.0853L45.8577 41.0678L45.9559 41.0857L45.655 42.7728C45.4637 44.1065 45.6898 45.4667 46.3029 46.6665L49.5798 53.292Z" fill="#64D370" stroke="#64D370" stroke-width="0.2"/>
</svg>
