<svg width="325" height="57" viewBox="0 0 325 57" fill="none" xmlns="http://www.w3.org/2000/svg">
<path d="M20.7792 0C12.8671 0 6.3137 3.1968 6.15385 15.9041H6.07394V18.1418H0V19.7402H6.07394V50.4295C6.07394 52.7472 4.23576 54.6653 1.91808 54.6653C1.67833 54.6653 1.51849 54.8251 1.51849 55.0649C1.51849 55.3046 1.67833 55.4645 1.91808 55.4645H18.7812C19.021 55.4645 19.2607 55.3046 19.2607 55.0649C19.2607 54.8251 19.021 54.6653 18.7812 54.6653C16.4635 54.6653 14.6254 52.7472 14.6254 50.4295V19.7402H20.6993V18.1418H14.6254V16.5434L14.7053 12.4675C14.7053 7.67232 15.984 1.1988 20.6993 1.1988C23.5764 1.1988 26.3736 5.994 25.4146 11.8282C25.4146 11.8282 30.6893 10.2298 30.6893 6.07392C30.6893 1.91808 25.7342 0 20.7792 0Z" fill="#64D370"/>
<path d="M41.0262 10.949C44.0632 10.949 46.5407 8.47152 46.5407 5.43456C46.5407 2.3976 44.0632 0 41.0262 0C37.9893 0 35.5117 2.3976 35.5117 5.43456C35.5117 8.47152 37.9893 10.949 41.0262 10.949ZM32.1551 16.943C32.1551 17.1828 32.3149 17.4226 32.5547 17.4226C34.8724 17.4226 36.7904 19.2607 36.7904 21.5784V51.2287C36.3908 53.1468 34.7125 54.6653 32.6346 54.6653C32.3948 54.6653 32.235 54.8251 32.235 55.0649C32.235 55.3046 32.3948 55.4645 32.6346 55.4645H49.4977C49.7375 55.4645 49.8973 55.3046 49.8973 55.0649C49.8973 54.8251 49.7375 54.6653 49.4977 54.6653C47.18 54.6653 45.262 52.7472 45.262 50.4295V16.5434H32.5547C32.3149 16.5434 32.1551 16.7832 32.1551 16.943Z" fill="#64D370"/>
<path d="M75.2632 54.1858C71.1073 54.1858 67.7507 50.8291 67.7507 46.7532V18.1418H75.6628V16.5434H67.7507V5.67432H66.1523C65.1933 11.9081 59.6788 16.5434 53.2053 16.5434V18.1418H59.2792V42.5174C59.2792 50.0299 65.3531 56.1038 72.8656 56.1038C75.8226 56.1038 78.6198 55.1448 80.8576 53.4665L80.1383 52.3476C78.7797 53.5464 77.1013 54.1858 75.2632 54.1858Z" fill="#64D370"/>
<path d="M115.738 1.039C115.738 1.27876 115.897 1.4386 116.137 1.4386C118.455 1.4386 120.293 3.35668 120.293 5.67436V50.989C120.053 53.0669 118.295 54.6653 116.137 54.6653C115.897 54.6653 115.738 54.8252 115.738 55.0649C115.738 55.3047 115.897 55.4645 116.137 55.4645H133C133.24 55.4645 133.4 55.3047 133.4 55.0649C133.4 54.8252 133.24 54.6653 133 54.6653C130.843 54.6653 129.164 53.0669 128.845 51.0689V0.639404H116.137C115.897 0.639404 115.738 0.799241 115.738 1.039Z" fill="#64D370"/>
<path d="M157.734 56.1038C161.81 56.1038 165.726 55.2247 169.563 53.7861V55.4645H182.27C182.51 55.4645 182.669 55.3046 182.669 55.0649C182.669 54.8251 182.51 54.6653 182.27 54.6653C179.952 54.6653 178.114 52.7472 178.114 50.4295V49.4705C183.628 45.954 188.663 41.5584 192.899 37.1628L193.539 36.4435L193.938 36.0439L194.657 35.1648L195.057 34.7652L195.776 33.966L196.176 33.5664L196.895 32.6873L197.215 32.3676L197.934 31.4885L198.174 31.1688L198.893 30.2897L199.772 29.1708L200.571 28.0519L201.371 27.0129C203.608 23.4965 208.963 17.8221 212.879 17.8221C216.156 17.8221 220.631 20.7792 220.631 29.0109V50.4295C220.631 52.7472 218.793 54.5853 216.476 54.5853C216.236 54.5853 216.076 54.8251 216.076 55.0649C216.076 55.3046 216.236 55.4645 216.476 55.4645H233.339C233.578 55.4645 233.818 55.3046 233.818 55.0649C233.818 54.8251 233.578 54.5853 233.339 54.5853C231.021 54.5853 229.183 52.7472 229.183 50.4295V29.0109C229.183 29.0109 229.183 15.9041 215.996 15.9041C208.643 15.9041 203.608 21.5784 201.371 24.6953V16.5434H188.663C188.424 16.5434 188.264 16.7033 188.264 16.943C188.264 17.1828 188.424 17.4225 188.663 17.4225C190.981 17.4225 192.899 19.2607 192.899 21.5784V34.8451C188.424 39.5604 183.389 44.1158 178.114 47.6323L176.116 48.8311L175.956 48.911L173.878 50.1098L171.96 51.0689L171.561 51.2287L169.563 52.1078C166.126 53.3865 162.61 54.1857 159.093 54.1857C155.017 54.1857 150.302 51.2287 150.302 42.9969V16.5434H137.595C137.355 16.5434 137.195 16.7033 137.195 16.943C137.195 17.1828 137.355 17.4225 137.595 17.4225C139.912 17.4225 141.83 19.2607 141.83 21.5784V42.9969C141.83 42.9969 141.271 56.1038 157.734 56.1038ZM165.007 16.943C165.007 17.1828 165.167 17.4225 165.407 17.4225C167.724 17.4225 169.563 19.2607 169.563 21.5784V44.8351C169.563 46.6733 171.561 47.952 173.239 47.0729C174.837 46.2737 176.516 45.3146 178.114 44.2757V16.5434H165.407C165.167 16.5434 165.007 16.7033 165.007 16.943ZM188.264 55.0649C188.264 55.3046 188.424 55.4645 188.663 55.4645H205.606C205.846 55.4645 206.006 55.3046 206.006 55.0649C206.006 54.8251 205.846 54.5853 205.606 54.5853C203.289 54.5853 201.371 52.7472 201.371 50.4295V36.1238C201.371 34.5254 199.453 33.8061 198.414 35.0049C196.815 37.0829 194.897 39.1608 192.899 41.3186V50.4295C192.899 52.7472 190.981 54.5853 188.663 54.5853C188.424 54.5853 188.264 54.8251 188.264 55.0649Z" fill="#64D370"/>
<path d="M262.723 52.2677C256.409 52.2677 248.337 47.8721 248.337 34.0459C248.337 23.1768 254.811 17.8221 259.366 17.8221C263.762 17.8221 269.436 22.6173 265.76 30.6893C265.76 30.6893 273.193 30.6093 273.193 23.3366C273.193 16.0639 259.366 15.9041 259.366 15.9041C248.178 15.9041 239.786 23.976 239.786 36.7632C239.786 49.6303 247.458 56.1038 257.209 56.1038C266.959 56.1038 272.473 49.4705 274.391 46.1138L273.193 45.0749C273.193 45.0749 268.957 52.2677 262.723 52.2677Z" fill="#64D370"/>
<path d="M324.399 54.6653C322.081 54.6653 320.243 52.7472 320.243 50.4296V29.011C320.243 29.011 320.243 15.9041 307.056 15.9041C299.703 15.9041 294.669 21.3387 292.431 24.2957V0.639404H279.724C279.484 0.639404 279.324 0.799241 279.324 1.039C279.324 1.27876 279.484 1.4386 279.724 1.4386C282.041 1.4386 283.959 3.35668 283.959 5.67436V50.4296C283.959 52.7472 282.041 54.6653 279.724 54.6653C279.484 54.6653 279.324 54.8252 279.324 55.0649C279.324 55.3047 279.484 55.4645 279.724 55.4645H296.667C296.826 55.4645 297.066 55.3047 297.066 55.0649C297.066 54.8252 296.826 54.6653 296.667 54.6653C294.349 54.6653 292.431 52.7472 292.431 50.4296V27.013C294.589 23.4965 300.023 17.8222 303.939 17.8222C307.136 17.8222 311.692 20.7792 311.692 29.011V50.4296C311.692 52.7472 309.853 54.6653 307.536 54.6653C307.296 54.6653 307.136 54.8252 307.136 55.0649C307.136 55.3047 307.296 55.4645 307.536 55.4645H324.399C324.639 55.4645 324.798 55.3047 324.798 55.0649C324.798 54.8252 324.639 54.6653 324.399 54.6653Z" fill="#64D370"/>
</svg>
