<svg width="63" height="63" viewBox="0 0 63 63" fill="none" xmlns="http://www.w3.org/2000/svg">
<path d="M42.709 6.08484C44.5823 6.08484 46.7585 6.16625 48.6504 6.77332L48.8037 6.83582C48.9522 6.91018 49.0821 7.01823 49.1826 7.15222L49.2725 7.29285C49.3504 7.43945 49.3941 7.6029 49.3984 7.77039C49.4028 7.93789 49.3671 8.1033 49.2969 8.25378L49.2158 8.39929C49.1224 8.53843 48.9979 8.65318 48.8535 8.73523L48.7031 8.80554C43.9735 10.6011 40.6691 15.4297 40.6689 20.5468C40.6689 27.3347 46.0601 32.8551 52.6846 32.8553C55.1646 32.8553 57.1551 32.3038 58.9512 31.121L59.0977 31.0399C59.2499 30.9707 59.4173 30.9376 59.5859 30.9442L59.752 30.9637C59.9159 30.9961 60.0709 31.0663 60.2041 31.1698C60.3817 31.3077 60.5121 31.4982 60.5762 31.7137L60.6113 31.8768C60.6262 31.9875 60.6232 32.0999 60.6035 32.2098L60.5615 32.3719C58.6794 37.8227 54.6084 42.0284 49.4404 43.9891C50.6696 44.9537 51.6676 46.1816 52.3584 47.5839L52.4863 47.8534C53.1064 49.2086 53.429 50.6821 53.4316 52.1747L53.418 52.7137C53.1332 58.2494 48.4843 62.6659 42.8115 62.6659H10.7119C5.33497 62.6659 0.959169 58.3442 0.958984 53.0311L0.969727 52.5604C1.0829 50.2139 2.06176 47.9855 3.72656 46.3124L4.00488 46.0419C5.40357 44.7317 7.1597 43.8614 9.05469 43.5438C8.86441 42.7263 8.76813 41.8892 8.76758 41.0497L8.77148 40.7577C8.92903 34.6354 14.02 29.704 20.2549 29.704L20.7588 29.7147C21.9035 29.7653 23.0346 29.9882 24.1152 30.3739C23.7392 28.8263 23.5494 27.2392 23.5508 25.6464L23.5576 25.1425C23.8202 14.589 32.3092 6.08497 42.709 6.08484ZM20.2539 31.8573C15.1072 31.8576 10.9211 35.9822 10.9209 41.0497L10.9307 41.4423C10.9726 42.3563 11.1523 43.2598 11.4658 44.121L11.502 44.243C11.521 44.3253 11.5309 44.4095 11.5303 44.494L11.5215 44.621C11.5055 44.7475 11.4667 44.8697 11.4082 44.9823L11.3438 45.0917C11.2718 45.1973 11.1817 45.2894 11.0781 45.3632L10.9707 45.4305C10.8588 45.4919 10.7369 45.532 10.6113 45.5507L10.4854 45.5624C8.63946 45.61 6.87767 46.3261 5.52441 47.5702L5.25879 47.826C3.88248 49.2083 3.11043 51.0805 3.1123 53.0311L3.12207 53.4149C3.32583 57.3614 6.6521 60.5116 10.7119 60.5116H42.8115C47.4806 60.5116 51.2783 56.7706 51.2783 52.1747C51.2781 47.7225 47.7144 44.0736 43.2471 43.8495L42.8115 43.8378C42.3884 43.8381 41.966 43.8695 41.5479 43.9315L41.1318 44.0038C40.8875 44.0522 40.635 44.0142 40.417 43.8983L40.3262 43.8446C40.1188 43.7066 39.9664 43.5014 39.8936 43.2655L39.8672 43.163C39.2595 40.1804 36.6366 37.9886 33.5674 37.8544L33.2686 37.8485C32.418 37.8484 31.5763 38.0088 30.7871 38.3202L30.4521 38.4628C30.3517 38.5084 30.2449 38.5384 30.1357 38.5516L30.0254 38.5585C29.9149 38.5604 29.8048 38.5459 29.6992 38.5145L29.5947 38.4774C29.4926 38.4352 29.3978 38.3774 29.3135 38.3065L29.2324 38.2313C29.1556 38.152 29.0921 38.0612 29.043 37.9628L28.999 37.8612C27.6478 34.2711 24.133 31.8573 20.2539 31.8573ZM42.709 8.23816C33.3341 8.23829 25.7051 16.0467 25.7051 25.6464L25.709 26.036C25.7482 27.9771 26.1062 29.8994 26.7705 31.7255C28.3986 32.8335 29.7119 34.3438 30.584 36.1093C31.4522 35.8341 32.3576 35.6944 33.2686 35.6952L33.6309 35.702C37.3448 35.8519 40.5702 38.2954 41.7119 41.7421C43.499 41.5574 45.3041 41.8242 46.9609 42.5194C51.4358 41.3662 55.1703 38.3807 57.3789 34.2821C55.959 34.7725 54.4188 35.0096 52.6846 35.0096C44.8703 35.0094 38.5146 28.5202 38.5146 20.5468C38.5147 15.6656 41.0864 11.0084 45.0381 8.31042C44.2475 8.25287 43.4544 8.23816 42.709 8.23816Z" fill="#64D370" stroke="#64D370" stroke-width="0.1"/>
<path d="M54.4089 15.3272C54.6946 15.3272 54.9687 15.4407 55.1707 15.6426L55.2419 15.7217C55.3989 15.9134 55.4861 16.1545 55.4861 16.4044V17.9903L57.1492 17.4366L57.1501 17.4356L57.2517 17.4083C57.4923 17.356 57.745 17.3879 57.9666 17.5001L58.0583 17.5528C58.266 17.6849 58.4232 17.8847 58.5017 18.1202C58.5803 18.3558 58.5749 18.6105 58.488 18.8409L58.446 18.9376C58.3362 19.1601 58.153 19.3369 57.9294 19.4395L57.8308 19.4796L56.0867 20.0596L57.3591 21.9678L57.4128 22.0596C57.5278 22.2781 57.5647 22.5305 57.5154 22.7745C57.4659 23.0186 57.3333 23.2371 57.1423 23.3936L57.0574 23.4571C56.8501 23.5953 56.6021 23.6567 56.3562 23.6329L56.2517 23.6172C56.0073 23.5691 55.7882 23.4382 55.6306 23.2481L55.5671 23.1631L54.4089 21.4258L53.2507 23.1612L53.2517 23.1622C53.1932 23.251 53.1214 23.3308 53.0398 23.3985L52.9548 23.462C52.8666 23.5216 52.7701 23.5675 52.6687 23.5987L52.5662 23.6251C52.4271 23.6533 52.2835 23.6544 52.1443 23.627C52.0398 23.6065 51.9391 23.5705 51.8455 23.5206L51.7546 23.4659C51.666 23.4068 51.5866 23.3351 51.5193 23.253L51.4568 23.168C51.3976 23.0794 51.3517 22.9826 51.321 22.8809L51.2957 22.7784C51.2682 22.6392 51.2685 22.4956 51.2966 22.3565L51.323 22.254C51.3541 22.1527 51.3993 22.056 51.4587 21.9678L52.7302 20.0596L50.988 19.4796C50.8863 19.4467 50.7903 19.3989 50.7029 19.338L50.6189 19.2735C50.5107 19.181 50.4224 19.0675 50.3582 18.9405C50.3099 18.8452 50.2758 18.7436 50.2576 18.6387L50.2449 18.5333C50.2345 18.3916 50.2518 18.2491 50.2966 18.1143L50.3357 18.0147C50.3791 17.9177 50.4366 17.8275 50.5066 17.7471L50.5808 17.67C50.6581 17.5973 50.7461 17.5365 50.8416 17.4893L50.9392 17.4464C51.0388 17.4089 51.1441 17.3867 51.2507 17.3799C51.3921 17.371 51.5338 17.3897 51.6677 17.4356H51.6687L53.3318 17.9903V16.4044C53.3318 16.1189 53.4454 15.8446 53.6472 15.6426L53.7263 15.5714C53.918 15.4142 54.1589 15.3272 54.4089 15.3272Z" fill="#64D370" stroke="#64D370" stroke-width="0.1"/>
<path d="M5.11694 24.5693C5.40256 24.5693 5.6767 24.6828 5.87866 24.8848L5.94995 24.9639C6.1069 25.1555 6.19409 25.3966 6.19409 25.6465V27.2324L7.85718 26.6787L7.85815 26.6777L7.95972 26.6504C8.20035 26.5981 8.45296 26.63 8.67456 26.7422L8.76636 26.7949C8.97397 26.9271 9.13116 27.1268 9.20972 27.3623L9.23804 27.4648C9.28474 27.6706 9.27047 27.8856 9.19604 28.083L9.15405 28.1797C9.04417 28.4022 8.86105 28.579 8.63745 28.6816L8.53882 28.7217L6.79468 29.3018L8.06714 31.21L8.12183 31.3008C8.17212 31.394 8.20816 31.4944 8.22925 31.5986L8.24585 31.7041C8.25648 31.8095 8.25079 31.9162 8.23022 32.0205C8.20961 32.125 8.17377 32.2257 8.12378 32.3193L8.06909 32.4102C8.01001 32.4986 7.93816 32.5773 7.8562 32.6445L7.77124 32.708C7.68253 32.7672 7.58587 32.8132 7.48413 32.8438L7.38159 32.8691C7.27726 32.8896 7.17059 32.8945 7.06519 32.8838L6.95972 32.8672C6.85552 32.846 6.75507 32.8101 6.66187 32.7598L6.57104 32.7051C6.48283 32.6455 6.40445 32.5726 6.33765 32.4902L6.27515 32.4053L5.11694 30.668L3.95874 32.4033L3.95972 32.4043C3.90116 32.4931 3.82938 32.5729 3.7478 32.6406L3.66284 32.7041C3.57461 32.7637 3.4781 32.8096 3.37671 32.8408L3.27417 32.8672C3.13509 32.8954 2.99154 32.8965 2.85229 32.8691C2.74782 32.8486 2.64709 32.8126 2.55347 32.7627L2.46265 32.708C2.374 32.6489 2.29462 32.5772 2.22729 32.4951L2.16479 32.4102C2.08603 32.2922 2.03112 32.1597 2.00366 32.0205C1.97621 31.8813 1.97653 31.7377 2.00464 31.5986C2.03272 31.4597 2.08755 31.3275 2.16675 31.21L3.43823 29.3018L1.69604 28.7217C1.59431 28.6889 1.49827 28.641 1.41089 28.5801L1.3269 28.5156C1.24581 28.4463 1.17603 28.365 1.1189 28.2754L1.06616 28.1826C1.00192 28.0557 0.96331 27.9173 0.952881 27.7754C0.942482 27.6337 0.95977 27.4913 1.00464 27.3564L1.0437 27.2568C1.08708 27.1599 1.14458 27.0696 1.2146 26.9893L1.28882 26.9121C1.36613 26.8394 1.45407 26.7787 1.54956 26.7314L1.64722 26.6885C1.74682 26.651 1.85214 26.6289 1.95874 26.6221L2.06519 26.6201C2.17077 26.6239 2.27543 26.6434 2.37573 26.6777H2.37671L4.03979 27.2324V25.6465C4.03979 25.361 4.15342 25.0867 4.35522 24.8848L4.43433 24.8135C4.62599 24.6563 4.86691 24.5694 5.11694 24.5693Z" fill="#64D370" stroke="#64D370" stroke-width="0.1"/>
<path d="M11.2788 3.00397C11.5644 3.00397 11.8386 3.11745 12.0405 3.3194L12.1128 3.3985C12.2696 3.59006 12.356 3.83138 12.356 4.08112V5.66705L14.019 5.11334L14.02 5.11237L14.1226 5.08502C14.3629 5.03298 14.6151 5.06487 14.8364 5.17682L14.9292 5.22955C15.1367 5.36174 15.2941 5.56155 15.3726 5.79694L15.4009 5.89948C15.4476 6.10523 15.4324 6.32022 15.3579 6.51764L15.3159 6.61432C15.206 6.83694 15.0231 7.01365 14.7993 7.11627L14.7007 7.15631L12.9575 7.73639L14.229 9.64459L14.2837 9.73639C14.3822 9.9237 14.4233 10.1362 14.4019 10.3467L14.3853 10.4512C14.3358 10.6952 14.204 10.9139 14.0132 11.0704L13.9272 11.1339C13.7201 11.2719 13.4726 11.3332 13.2271 11.3096L13.1216 11.294C12.8772 11.2458 12.658 11.115 12.5005 10.9249L12.437 10.8399L11.2788 9.10162L10.1216 10.8399C9.98286 11.0479 9.77663 11.2002 9.53955 11.2725L9.43701 11.2979C9.19181 11.3469 8.93802 11.309 8.71924 11.1924L8.62842 11.1378C8.39079 10.9793 8.22543 10.7333 8.16943 10.4532C8.1135 10.1732 8.17118 9.88218 8.32959 9.64459L9.6001 7.73639L7.85791 7.15631C7.62324 7.07551 7.42459 6.91591 7.29443 6.70709L7.24268 6.61432C7.11704 6.35989 7.09631 6.06613 7.18604 5.79694L7.2251 5.6983C7.32552 5.47358 7.50065 5.28893 7.72217 5.17682L7.81885 5.13385C8.04825 5.04488 8.30236 5.03622 8.53857 5.11237H8.53955L10.2026 5.66705V4.08112C10.2026 3.7955 10.3161 3.52136 10.5181 3.3194L10.5972 3.24811C10.7887 3.0912 11.0291 3.00408 11.2788 3.00397Z" fill="#64D370" stroke="#64D370" stroke-width="0.1"/>
<path d="M59.5452 5.05792C60.1397 5.05815 60.6213 5.54044 60.6213 6.13507C60.6211 6.72951 60.1396 7.21102 59.5452 7.21124C58.9505 7.21124 58.4682 6.72965 58.468 6.13507C58.468 5.5403 58.9504 5.05792 59.5452 5.05792Z" fill="#64D370" stroke="#64D370" stroke-width="0.1"/>
<path d="M17.4395 20.4619C18.034 20.4621 18.5156 20.9444 18.5156 21.539C18.5154 22.1334 18.0339 22.6149 17.4395 22.6152C16.8448 22.6152 16.3625 22.1336 16.3623 21.539C16.3623 20.9442 16.8447 20.4619 17.4395 20.4619Z" fill="#64D370" stroke="#64D370" stroke-width="0.1"/>
<path d="M32.8445 0.950195C33.4391 0.950422 33.9207 1.43271 33.9207 2.02734C33.9204 2.62178 33.4389 3.10329 32.8445 3.10352C32.2499 3.10352 31.7676 2.62192 31.7673 2.02734C31.7673 1.43258 32.2497 0.950195 32.8445 0.950195Z" fill="#64D370" stroke="#64D370" stroke-width="0.1"/>
<path d="M61.5989 41.0001C62.1935 41.0003 62.675 41.4826 62.675 42.0773C62.6748 42.6717 62.1933 43.1532 61.5989 43.1534C61.0042 43.1534 60.522 42.6718 60.5217 42.0773C60.5217 41.4825 61.0041 41.0001 61.5989 41.0001Z" fill="#64D370" stroke="#64D370" stroke-width="0.1"/>
</svg>
